<svg id="Layer_1" data-name="Layer 1" xmlns="http://www.w3.org/2000/svg" viewBox="0 0 129 115.62"><defs><style>.cls-1{fill:#323e44;}.cls-2{fill:#f15a22;}</style></defs><polygon class="cls-1" points="0 62.21 28 62.21 45.09 92.81 81.38 92.98 86.53 84.13 50.49 83.87 38.4 62.21 129 62.21 98.19 115.62 31.25 115.62 0 62.21"/><path class="cls-2" d="M303.82,245.52H288.69a4.47,4.47,0,0,1-3.88-2.28l-14.54-26.05a4.47,4.47,0,0,0-3.87-2.28l-31.13-.15a4.45,4.45,0,0,0-3.86,2.21h0a4.45,4.45,0,0,0,3.81,6.69l25.79.18a4.44,4.44,0,0,1,3.85,2.28L272,238.9a4.45,4.45,0,0,1-3.88,6.62h-83L210.17,202a19.83,19.83,0,0,1,17.18-9.92h45.26A17.83,17.83,0,0,1,288,200.93l20.91,35.73A5.89,5.89,0,0,1,303.82,245.52Z" transform="translate(-185.06 -192.11)"/></svg>